<svg width="60" height="51" viewBox="0 0 60 51" fill="none" xmlns="http://www.w3.org/2000/svg">
<path d="M32.3722 2.98947C27.837 5.78181 18.3135 11.2013 7.99222 14.3682C6.37663 14.8498 4.94341 15.8078 3.87925 17.1174C2.8151 18.4271 2.16935 20.0277 2.02613 21.7107C1.73694 24.989 1.94173 28.2924 2.63363 31.51C3.07466 33.4049 4.16108 35.0868 5.7059 36.266C7.25072 37.4453 9.15728 38.0481 11.0974 37.9709C17.224 37.7537 27.4552 38.6397 36.4477 45.3619C37.7974 46.3531 39.4131 46.9151 41.0851 46.975C42.7572 47.0349 44.4084 46.59 45.8246 45.6979C50.3899 42.9134 54.2766 39.1423 57.201 34.6599C58.172 33.1698 58.6429 31.4079 58.5452 29.6307C58.4475 27.8534 57.7862 26.1536 56.6576 24.7786C53.695 21.2437 51.7164 16.9877 50.922 12.4412C50.592 10.4729 49.5734 8.6864 48.0488 7.40169C45.5591 5.29122 42.7583 3.5798 39.746 2.32829C38.5486 1.86341 37.2606 1.68124 35.9817 1.79591C34.7029 1.91057 33.4678 2.319 32.3722 2.98947Z" fill="#C93A31"/>
<path d="M44.6915 35.0277C56.5239 29.14 43.8317 16.1943 48.0488 7.40169C45.5591 5.29122 42.7583 3.57979 39.746 2.32828C38.5483 1.86413 37.2601 1.68273 35.9814 1.79817C34.7027 1.9136 33.4678 2.32277 32.3726 2.99391C27.8373 5.78625 18.3139 11.2058 7.99259 14.3726C7.23489 14.6081 6.51341 14.9476 5.84868 15.3814C5.84868 15.3814 15.7741 12.3846 23.3231 22.9728C30.8721 33.5609 32.8596 40.9199 44.6915 35.0277Z" fill="#F47E69"/>
<path d="M43.5475 20.8201C44.3564 21.4636 44.9568 22.333 45.2728 23.3182C45.5887 24.3035 45.6062 25.3604 45.3228 26.3553C45.0394 27.3502 44.468 28.2385 43.6808 28.9079C42.8935 29.5773 41.9258 29.9977 40.9 30.116C39.8741 30.2343 38.8362 30.0451 37.9174 29.5724C36.9986 29.0997 36.2402 28.3648 35.738 27.4604C35.2359 26.556 35.0125 25.5229 35.0962 24.4915C35.1799 23.4602 35.5669 22.477 36.2083 21.6662C36.6344 21.1276 37.1623 20.6783 37.7618 20.3442C38.3613 20.0102 39.0207 19.7977 39.7023 19.7192C40.3839 19.6406 41.0743 19.6974 41.7341 19.8863C42.3939 20.0752 43.0101 20.3925 43.5475 20.8201Z" fill="#E6E7E8"/>
<path d="M42.4566 22.2041C42.9932 22.6309 43.3915 23.2075 43.6012 23.8611C43.8109 24.5146 43.8224 25.2157 43.6345 25.8757C43.4465 26.5357 43.0674 27.1249 42.5452 27.5689C42.0229 28.0129 41.3809 28.2917 40.7004 28.37C40.0199 28.4484 39.3314 28.3227 38.722 28.009C38.1126 27.6953 37.6097 27.2076 37.2768 26.6076C36.9439 26.0076 36.796 25.3222 36.8518 24.6381C36.9076 23.954 37.1645 23.3019 37.5902 22.7643C37.8726 22.4068 38.2225 22.1087 38.6201 21.8869C39.0176 21.6652 39.455 21.5243 39.907 21.4723C40.3591 21.4202 40.817 21.4581 41.2545 21.5837C41.692 21.7092 42.1005 21.9201 42.4566 22.2041Z" fill="#414042"/>
<path d="M57.2002 34.651C58.1458 33.1696 58.6133 31.4321 58.5389 29.6748C55.3067 33.4827 49.6144 39.7478 45.3313 42.1636C38.9847 45.7375 33.0355 37.8672 19.6104 35.1733C13.1234 33.8731 8.44911 34.7296 5.33696 35.9557C6.93873 37.3203 8.99139 38.036 11.0921 37.9624C17.2187 37.7452 27.4499 38.6312 36.4424 45.3534C37.7921 46.3446 39.4078 46.9066 41.0799 46.9665C42.7519 47.0264 44.4031 46.5815 45.8194 45.6894C50.3863 42.9053 54.2745 39.1341 57.2002 34.651Z" fill="#C93A31"/>
</svg>
