<svg width="262" height="163" viewBox="0 0 262 163" fill="none" xmlns="http://www.w3.org/2000/svg">
<path d="M95.5643 72.6656C95.5643 72.6656 97.3614 65.0296 91.8849 60.594C86.4084 56.1584 74.0208 53.0992 67.7763 46.7963C61.5318 40.4934 54.5149 41.9615 46.3185 57.467C38.1221 72.9726 34.7571 79.2821 42.763 86.5697C50.7689 93.8573 69.6964 97.0845 79.622 92.7008C89.5475 88.3171 95.295 75.8962 95.5643 72.6656Z" fill="#C93A31"/>
<path d="M57.4244 77.0263C69.3831 86.0123 78.6222 73.0772 83.2662 68.8169C85.4752 66.7957 86.5418 62.0492 87.0492 57.6268C80.9307 54.5317 72.5618 51.5953 67.7704 46.7806C67.3503 46.3529 66.9068 45.9489 66.4419 45.5704C65.958 48.0843 64.569 51.1673 61.362 54.6085C52.8226 63.7919 45.4567 68.0544 57.4244 77.0263Z" fill="#EB645B"/>
<path d="M65.9139 69.4171C67.4964 67.9263 67.5742 65.436 66.0876 63.8548C64.6011 62.2737 62.1131 62.2005 60.5305 63.6913C58.948 65.1822 58.8702 67.6725 60.3568 69.2536C61.8434 70.8348 64.3314 70.908 65.9139 69.4171Z" fill="#E6E7E8"/>
<path d="M65.006 68.4515C66.0547 67.4635 66.1062 65.8132 65.1211 64.7654C64.136 63.7176 62.4872 63.6691 61.4384 64.657C60.3897 65.645 60.3382 67.2953 61.3233 68.3431C62.3084 69.3909 63.9572 69.4394 65.006 68.4515Z" fill="#414042"/>
<path d="M46.3036 57.4655C38.093 72.9621 34.7422 79.2805 42.7481 86.5681C48.2191 91.5487 58.7845 94.6297 68.0998 94.6865C68.0998 94.6865 47.7855 87.7957 44.1464 78.3804C41.0344 70.3256 51.5688 50.1507 59.9359 43.3654C55.768 43.8828 51.2545 48.1188 46.3036 57.4655Z" fill="#C93A31"/>
<path d="M133.073 59.9131C133.073 59.9131 141.315 51.4883 152.197 49.4667C163.08 47.4451 172.657 41.5897 173.478 31.5663C174.299 21.5428 158.763 11.5473 156.954 17.549C155.146 23.5507 150.172 21.1174 150.172 21.1174C150.172 21.1174 143.323 5.97935 133.086 4.91307C122.85 3.8468 110.619 13.2036 110.612 25.5367C110.605 37.8697 118.304 72.9174 133.073 59.9131Z" fill="#F15D4F"/>
<path d="M122.451 35.2318C124.325 54.9292 141.612 39.0104 147.865 33.8132C154.118 28.616 156.251 19.2341 156.251 19.2341C154.108 23.038 150.17 21.1217 150.17 21.1217C148.544 17.7285 146.489 14.5574 144.054 11.6861C142.637 16.8526 120.578 15.5301 122.451 35.2318Z" fill="#C93A31"/>
<path d="M128.502 37.9004C130.289 40.1723 133.581 40.57 135.855 38.7886C138.129 37.0072 138.523 33.7214 136.736 31.4495C134.949 29.1776 131.657 28.78 129.384 30.5614C127.11 32.3428 126.715 35.6286 128.502 37.9004Z" fill="#E6E7E8"/>
<path d="M129.274 33.7629C128.768 35.6076 129.856 37.5143 131.704 38.0217C133.552 38.5292 135.461 37.4451 135.967 35.6004C136.474 33.7558 135.386 31.849 133.537 31.3416C131.689 30.8342 129.78 31.9182 129.274 33.7629Z" fill="#414042"/>
<path d="M133.073 59.9131C135.983 57.1175 139.266 54.7381 142.831 52.8425C142.831 52.8425 135.585 54.9183 131.334 57.0876C127.084 59.2569 122.263 60.1338 116.576 41.2775C110.889 22.4213 119.514 6.59859 131.449 4.84283C121.595 4.85878 110.625 13.8656 110.622 25.535C110.605 37.8697 118.304 72.9175 133.073 59.9131Z" fill="#C93A31"/>
<path d="M47.9585 139.234C46.4067 134.139 43.5778 123.553 43.1302 112.766C43.0739 111.081 42.5104 109.452 41.5132 108.091C40.516 106.729 39.1314 105.699 37.5396 105.134C34.4416 104.023 31.1941 103.384 27.9062 103.238C25.9614 103.184 24.0591 103.809 22.5269 105.004C20.9946 106.2 19.9282 107.891 19.5112 109.788C18.1685 115.769 14.7184 125.442 5.93661 132.437C4.63571 133.492 3.68256 134.912 3.20083 136.514C2.7191 138.117 2.73102 139.827 3.23503 141.423C4.77155 146.545 7.43444 151.26 11.0293 155.225C12.2246 156.542 13.8097 157.444 15.5537 157.8C17.2977 158.156 19.1096 157.947 20.7257 157.204C24.8961 155.234 29.5146 154.399 34.114 154.782C36.1016 154.962 38.088 154.43 39.7171 153.28C42.3897 151.407 44.7551 149.131 46.7292 146.535C47.4824 145.494 47.985 144.294 48.1982 143.028C48.4114 141.762 48.3294 140.464 47.9585 139.234Z" fill="#C93A31"/>
<path d="M13.844 143.031C16.5406 155.969 32.2804 146.973 39.7172 153.28C42.3897 151.407 44.7551 149.131 46.7292 146.535C47.4818 145.494 47.9837 144.293 48.1961 143.027C48.4086 141.761 48.3257 140.463 47.9541 139.233C46.4023 134.138 43.5734 123.552 43.1259 112.765C43.0901 111.973 42.9446 111.189 42.6934 110.436C42.6934 110.436 43.0768 120.797 30.9211 125.416C18.7654 130.035 11.1429 130.092 13.844 143.031Z" fill="#F47E69"/>
<path d="M27.8777 145.525C27.0502 146.145 26.057 146.505 25.0239 146.561C23.9907 146.617 22.9639 146.366 22.0733 145.84C21.1826 145.313 20.4682 144.535 20.0202 143.604C19.5722 142.673 19.4107 141.63 19.5563 140.608C19.7019 139.586 20.1479 138.63 20.8381 137.861C21.5282 137.092 22.4314 136.544 23.4335 136.288C24.4356 136.031 25.4916 136.077 26.4681 136.419C27.4445 136.762 28.2975 137.385 28.9193 138.211C29.3324 138.76 29.6331 139.384 29.8044 140.049C29.9756 140.714 30.0139 141.405 29.9172 142.085C29.8205 142.764 29.5906 143.417 29.2406 144.008C28.8907 144.598 28.4276 145.114 27.8777 145.525Z" fill="#E6E7E8"/>
<path d="M26.8154 144.119C26.2665 144.53 25.6077 144.769 24.9224 144.806C24.2371 144.844 23.5559 144.677 22.9651 144.328C22.3743 143.979 21.9004 143.463 21.6033 142.845C21.3061 142.227 21.1992 141.536 21.2958 140.858C21.3925 140.179 21.6885 139.545 22.1465 139.035C22.6044 138.525 23.2036 138.162 23.8684 137.992C24.5332 137.822 25.2337 137.853 25.8813 138.08C26.529 138.308 27.0946 138.722 27.5068 139.27C27.7811 139.633 27.9808 140.048 28.0945 140.488C28.2082 140.929 28.2337 141.388 28.1694 141.838C28.1052 142.289 27.9526 142.722 27.7202 143.114C27.4879 143.505 27.1804 143.847 26.8154 144.119Z" fill="#414042"/>
<path d="M11.0381 155.227C12.2315 156.517 13.7938 157.409 15.5126 157.783C12.6482 153.691 8.03029 146.597 6.77899 141.841C4.9302 134.796 14.0514 131.036 20.0599 118.732C22.9617 112.786 23.3178 108.047 22.9206 104.726C21.1946 105.93 19.982 107.734 19.5208 109.785C18.1781 115.766 14.7279 125.439 5.94614 132.434C4.64523 133.489 3.6921 134.909 3.21037 136.511C2.72863 138.114 2.74055 139.824 3.24456 141.42C4.78027 146.543 7.44293 151.26 11.0381 155.227Z" fill="#C93A31"/>
<path d="M232.581 109.599C232.581 109.599 214.952 109.297 200.157 87.903C185.363 66.5088 185.521 41.5482 189.988 39.0908C194.456 36.6334 203.065 50.1178 214.59 47.8917C226.115 45.6657 223.492 46.5943 232.544 59.6806C241.596 72.7668 249.689 77.1285 244.832 90.5759C239.975 104.023 240.238 109.156 232.581 109.599Z" fill="#C93A31"/>
<path d="M201.043 51.0578C204.143 62.3601 198.184 82.4457 214.796 88.4206C231.408 94.3956 242.455 86.7823 233.805 75.3103C225.154 63.8382 216.029 50.0827 218.715 47.1828C217.568 47.3449 216.221 47.5963 214.577 47.9101C206.691 49.4357 200.178 43.608 195.418 40.5566C197.141 42.0204 199.386 45.002 201.043 51.0578Z" fill="#F47E69"/>
<path d="M223.2 79.1077C224.629 76.5998 223.751 73.4051 221.239 71.9721C218.726 70.5391 215.531 71.4104 214.102 73.9182C212.672 76.426 213.55 79.6207 216.063 81.0537C218.575 82.4868 221.771 81.6155 223.2 79.1077Z" fill="#E6E7E8"/>
<path d="M221.726 78.1797C222.628 76.4929 221.989 74.3921 220.299 73.4874C218.609 72.5828 216.508 73.2169 215.606 74.9037C214.704 76.5905 215.343 78.6914 217.032 79.596C218.722 80.5007 220.823 79.8666 221.726 78.1797Z" fill="#414042"/>
</svg>
