<svg width="174" height="136" viewBox="0 0 174 136" fill="none" xmlns="http://www.w3.org/2000/svg">
<path d="M13.5325 50.1612C13.5325 50.1612 16.0148 50.2414 18.6637 52.6935C21.3125 55.1456 26.256 53.136 27.8216 49.3169C29.3872 45.4978 42.2989 38.2696 46.4357 33.1231C50.5725 27.9766 59.9826 22.0073 56.5599 16.1281C53.1372 10.249 47.7445 11.949 47.8982 14.3275C48.0518 16.706 35.7784 18.4185 31.7744 17.7565C27.7704 17.0946 16.0554 16.0597 9.63985 21.5505C3.22426 27.0414 9.98319 30.1167 10.4634 33.1496C10.9437 36.1825 8.40284 47.6241 13.5325 50.1612Z" fill="#E5746D"/>
<path d="M25.9864 41.1849C33.2094 41.142 42.0307 34.2872 49.0109 30.3343C53.4909 25.8743 59.3787 20.9747 56.5599 16.1282C53.1372 10.249 47.7445 11.949 47.8982 14.3275C47.8982 14.3275 51.2718 16.2861 46.9707 21.5788C42.6696 26.8715 37.265 20.653 27.3296 23.0625C17.3942 25.472 15.0136 41.2454 25.9864 41.1849Z" fill="#C93A31"/>
<path d="M24.1333 28.6241C22.0808 29.7524 21.3333 32.3346 22.4637 34.3915C23.5942 36.4484 26.1746 37.2011 28.2271 36.0728C30.2797 34.9444 31.0272 32.3623 29.8967 30.3054C28.7662 28.2485 26.1859 27.4957 24.1333 28.6241Z" fill="#E6E7E8"/>
<path d="M25.3981 35.0446C24.8641 34.8887 24.3879 34.5777 24.0299 34.1511C23.6719 33.7245 23.448 33.2014 23.3867 32.6479C23.3255 32.0944 23.4294 31.5355 23.6855 31.0417C23.9416 30.5479 24.3383 30.1415 24.8255 29.8739C25.3126 29.6062 25.8684 29.4893 26.4224 29.538C26.9764 29.5867 27.5039 29.7987 27.9381 30.1473C28.3723 30.4959 28.6937 30.9654 28.8617 31.4964C29.0297 32.0274 29.0367 32.5961 28.8819 33.1306C28.7795 33.4858 28.6081 33.8171 28.3775 34.1057C28.1468 34.3942 27.8615 34.6342 27.5379 34.812C27.2143 34.9898 26.8587 35.1019 26.4915 35.1418C26.1244 35.1817 25.7528 35.1487 25.3981 35.0446Z" fill="#414042"/>
<path d="M9.34192 31.0073C9.89291 31.7493 10.3497 32.4585 10.4605 33.1675C10.9324 36.1843 8.40286 47.6241 13.5325 50.1613C13.5325 50.1613 16.0149 50.2415 18.6637 52.6935C20.2948 54.2173 22.8086 54.0203 24.8617 52.7452C18.2231 54.7887 17.6527 45.2027 17.7884 41.5289C18.1568 31.7054 9.33859 31.0009 9.33859 31.0009L9.34192 31.0073Z" fill="#C93A31"/>
<path d="M124.187 50.2247C124.187 50.2247 107.376 49.6393 95.0812 61.4097C82.7866 73.1802 79.8333 85.9273 82.6184 89.3688C85.4035 92.8104 95.0627 94.03 96.6853 97.093C98.3078 100.156 96.0371 106.835 104.866 113.187C113.695 119.539 128.539 110.654 132.247 111.533C135.955 112.413 142.668 124.653 146.203 121.574C149.316 118.856 162.103 95.5656 153.17 78.7517C152.317 77.1527 150.866 75.9574 149.133 75.4266C147.401 74.8957 145.527 75.0725 143.922 75.9183C141.036 77.4189 137.045 78.253 132.864 75.2444C124.75 69.4067 148.33 56.5852 124.187 50.2247Z" fill="#C93A31"/>
<path d="M96.6797 97.1105C98.2921 100.188 96.0316 106.852 104.861 113.204C113.69 119.556 128.539 110.654 132.247 111.533C133.016 111.715 133.926 112.405 134.913 113.344C133.895 112.319 130.196 108.055 129.18 99.484C127.978 89.5059 129.143 81.8742 119.562 78.3432C105.463 73.135 107.02 97.3536 95.2033 95.1541C94.8027 95.0742 94.3971 95.0214 93.9893 94.996C95.2525 95.6116 96.2526 96.2953 96.6797 97.1105Z" fill="#E6746D"/>
<path d="M108.091 93.9397C107.844 92.6172 107.994 91.2502 108.522 90.0115C109.051 88.7728 109.934 87.718 111.061 86.9804C112.188 86.2429 113.507 85.8558 114.852 85.8679C116.197 85.8801 117.507 86.291 118.618 87.0487C119.728 87.8065 120.588 88.877 121.089 90.125C121.59 91.373 121.71 92.7425 121.434 94.0602C121.157 95.378 120.497 96.5849 119.536 97.5284C118.575 98.4719 117.356 99.1096 116.034 99.3608C115.156 99.5278 114.254 99.52 113.379 99.3379C112.504 99.1558 111.674 98.8029 110.937 98.2994C110.199 97.796 109.568 97.1518 109.08 96.4038C108.592 95.6557 108.256 94.8184 108.091 93.9397Z" fill="#E6E7E8"/>
<path d="M110.344 93.5074C110.18 92.6302 110.279 91.7234 110.63 90.9016C110.98 90.0799 111.566 89.3802 112.314 88.891C113.061 88.4017 113.936 88.1449 114.828 88.1531C115.72 88.1612 116.59 88.4339 117.326 88.9367C118.062 89.4395 118.633 90.1497 118.965 90.9777C119.298 91.8056 119.377 92.7141 119.193 93.5881C119.009 94.4622 118.571 95.2627 117.933 95.8883C117.295 96.5139 116.487 96.9365 115.61 97.1028C115.027 97.214 114.429 97.2091 113.849 97.0885C113.269 96.9679 112.718 96.7339 112.229 96.3999C111.74 96.0659 111.322 95.6386 110.998 95.1422C110.675 94.6459 110.452 94.0903 110.344 93.5074Z" fill="#414042"/>
<path d="M81.6746 84.9557C87.0098 76.7265 97.0928 63.2575 107.277 60.7205C122.138 57.0124 130.691 55.8696 128.96 63.5444C127.229 71.2192 125.014 80.1623 139.603 77.2387C137.186 77.4281 134.785 76.7198 132.86 75.2492C124.746 69.4114 148.33 56.5852 124.182 50.2422C124.182 50.2422 107.37 49.6568 95.0758 61.4273C85.9933 70.1223 82.0188 79.3376 81.6746 84.9557Z" fill="#C93A31"/>
</svg>
