<svg width="78" height="74" viewBox="0 0 78 74" fill="none" xmlns="http://www.w3.org/2000/svg">
<path d="M11.656 17.2534C11.656 17.2534 16.5948 7.33798 31.8523 7.76086C47.1097 8.18374 72.4588 15.6227 73.1864 25.5731C73.914 35.5235 65.3357 69.9206 49.7835 69.4112C34.2314 68.9019 36.7514 47.7408 32.737 42.0968C28.7227 36.4527 2.62671 32.8552 11.656 17.2534Z" fill="#EB645B"/>
<path d="M51.3027 40.6045C54.9331 41.5726 58.6628 39.4085 59.6333 35.7708C60.6038 32.1331 58.4475 28.3993 54.8172 27.4312C51.1869 26.4631 47.4572 28.6272 46.4867 32.2649C45.5162 35.9027 47.6724 39.6364 51.3027 40.6045Z" fill="#E6E7E8"/>
<path d="M56.9497 31.7798C57.3958 32.5528 57.6029 33.4412 57.5449 34.3327C57.4868 35.2242 57.1662 36.0787 56.6235 36.7882C56.0808 37.4977 55.3405 38.0303 54.4962 38.3187C53.6518 38.607 52.7413 38.6382 51.8799 38.4082C51.0184 38.1783 50.2446 37.6975 49.6564 37.0268C49.0682 36.356 48.6919 35.5253 48.5752 34.6398C48.4585 33.7543 48.6065 32.8537 49.0006 32.0519C49.3947 31.2501 50.0172 30.5832 50.7893 30.1353C51.8252 29.5363 53.0555 29.373 54.2103 29.6813C55.3652 29.9896 56.3504 30.7442 56.9497 31.7798Z" fill="#414042"/>
<path d="M65.5251 55.9608C57.0276 64.2147 47.6969 63.7217 47.0695 54.4178C46.2264 42.0008 41.1539 36.0522 24.9654 30.5088C17.0299 27.7928 12.542 24.1944 10.0261 21.223C7.18807 33.5281 29.0619 36.9637 32.7093 42.0886C36.7237 47.7327 34.1576 68.8863 49.7558 69.4031C56.3132 69.633 61.6245 63.6756 65.5251 55.9608Z" fill="#C93A31"/>
</svg>
