<svg width="79" height="70" viewBox="0 0 79 70" fill="none" xmlns="http://www.w3.org/2000/svg">
<path d="M57.4505 63.3659C57.4505 63.3659 60.7199 60.9071 61.0961 54.376C61.4722 47.8448 66.0897 41.331 71.49 38.409C79.509 34.0812 77.17 9.05176 60.3628 12.0448C43.5555 15.0379 37.7172 4.57016 23.424 1.77346C9.1308 -1.02323 -2.96069 23.5751 8.97416 30.8052C20.909 38.0353 35.4011 44.4351 39.2626 55.3856C43.1241 66.336 47.972 70.1077 57.4505 63.3659Z" fill="#F47E69"/>
<path d="M50.0218 29.0859C51.1487 17.7809 52.0538 13.477 59.575 12.1668C43.3802 14.6968 37.512 4.52912 23.424 1.77336C22.3055 1.55359 21.161 1.49743 20.0264 1.60666C21.0515 3.21996 22.0828 5.67749 22.8209 9.42854C24.8204 19.7102 24.9192 26.993 31.3984 33.7489C37.8776 40.5048 48.8568 40.772 50.0218 29.0859Z" fill="#C93A31"/>
<path d="M36.8366 32.8913C38.3128 35.0853 41.2912 35.6702 43.489 34.1979C45.6867 32.7255 46.2717 29.7534 44.7954 27.5595C43.3192 25.3655 40.3408 24.7806 38.1431 26.2529C35.9453 27.7253 35.3604 30.6974 36.8366 32.8913Z" fill="#E6E7E8"/>
<path d="M42.8808 32.633C42.4046 33.0419 41.8176 33.3006 41.1939 33.3765C40.5703 33.4523 39.938 33.3419 39.3771 33.0592C38.8162 32.7765 38.3518 32.3342 38.0426 31.7882C37.7335 31.2422 37.5935 30.617 37.6403 29.9917C37.6872 29.3665 37.9187 28.7692 38.3058 28.2754C38.6928 27.7816 39.2179 27.4135 39.8147 27.2176C40.4114 27.0217 41.0531 27.0069 41.6585 27.1749C42.2638 27.343 42.8058 27.6864 43.2157 28.1617C43.488 28.4774 43.6952 28.8434 43.8257 29.2389C43.9562 29.6345 44.0074 30.0518 43.9763 30.467C43.9452 30.8822 43.8324 31.2872 43.6445 31.6588C43.4565 32.0305 43.197 32.3615 42.8808 32.633Z" fill="#414042"/>
<path d="M56.9909 38.0897C52.2035 37.5387 46.2697 46.6364 60.885 56.2878C60.9773 55.6909 61.055 55.0761 61.0961 54.3759C61.4706 47.8609 66.0897 41.3309 71.49 38.4089C71.4778 38.4076 61.7782 38.6406 56.9909 38.0897Z" fill="#C93A31"/>
<path d="M39.2626 55.3855C42.8368 65.5128 47.2574 69.4958 55.4058 64.6936C52.0429 64.8375 48.2324 64.4085 46.1713 62.1964C41.9458 57.6555 44.6237 49.687 34.7801 42.391C24.9364 35.095 12.2408 29.98 10.1038 22.3547C8.93352 18.1633 9.7561 11.517 10.7322 6.37656C3.74944 13.3589 0.982117 25.9706 8.96605 30.8043C20.909 38.0352 35.4011 44.435 39.2626 55.3855Z" fill="#C93A31"/>
</svg>
